<svg xmlns="http://www.w3.org/2000/svg" viewBox="0 0 301.5 96.5"><defs><style>.cls-1{fill:#fff;}</style></defs><title>âbout_button_inverted</title><g id="Ebene_2" data-name="Ebene 2"><polygon class="cls-1" points="1 0.5 0 96.5 301 76.5 301.5 0 1 0.5"/></g><g id="Ebene_4" data-name="Ebene 4"><path d="M71,9.31H62l-40,69,12-1,8-15h1l28-2,3,15,10-1Zm-24,44,17-31,5,30Z" transform="translate(0.5 0.69)"/><path d="M147,23.31c1.14-16-15-15-15-15H106l-12,65,24-1c13,0,25-8,25-21,0-12-10-12-10-12S146,37.31,147,23.31Zm-13,30c-1,10-12,10-12,10l-17,1,4-20h18C129,44.31,134.9,44.3,134,53.31Zm4-27c0,1-1,10-17,10H110l4-19h17C139,17.31,138,25.31,138,26.31Z" transform="translate(0.5 0.69)"/><path d="M184,8.31c-20-2-26,16-26,16s0,1-4,23,15,23,15,23c20,1,25-20,25-20l4-25S200,9.91,184,8.31Zm5,21-3,20s-3.45,12.74-16,12c0,0-9.51.23-7-16s3-17,3-17S168.62,15,181.17,16.42C191.23,17.61,189,29.31,189,29.31Z" transform="translate(0.5 0.69)"/><path d="M211,8.31l-7,41s-2,17,14,17,21-12,21-12a104.54,104.54,0,0,0,4-17c1-8,4-29,4-29h-6l-7,38s-2,13.86-15,12c-7-1-7-8-7-8l6-42Z" transform="translate(0.5 0.69)"/><polygon points="258.5 64 265.5 64 272.5 16 285.5 16 286.5 9 253.5 9 251.5 16 265.5 16 258.5 64"/></g></svg>