<svg xmlns="http://www.w3.org/2000/svg" viewBox="0 0 492 113"><defs><style>.cls-1{fill:#fff;}</style></defs><title>documentation_button_inverted</title><g id="Ebene_2" data-name="Ebene 2"><polygon class="cls-1" points="25.5 8.5 24.5 104.5 325.5 84.5 326 8 25.5 8.5"/><g id="Ebene_5" data-name="Ebene 5"><polygon class="cls-1" points="0 0 0 113 492 81 492 1 0 0"/><path d="M367,46.36" transform="translate(0 0.64)"/><path d="M433,62.36" transform="translate(0 0.64)"/></g></g><g id="Ebene_6" data-name="Ebene 6"><path d="M56,11.36H35l-11,76s6,0,19-1c14.78-1.14,17-6,22-12,5.51-6.61,7.29-30.1,8-39C75,10.36,56,11.36,56,11.36Zm8,31-3,20s-2,12-16,14c-3.13.45-10,1-10,1l7-56H56S67,22.36,64,42.36Z" transform="translate(0 0.64)"/><path d="M105,10.36c-19,2-22,24-22,24l-3,25c-2,27,16,25,16,25,15,1,23-22,23-22l4-30S124,8.36,105,10.36Zm10,24-4,26s-2,13-14,14c0,0-12,0-8-21s3-20,3-20,4-14,14-13S115,34.36,115,34.36Z" transform="translate(0 0.64)"/><path d="M157,60.36h7s-6,22-23,21-11-30-11-30l2-18s5-23,21-23,15,20,15,20h-7s-1-9-9-10-12,11-12,11l-3,25s-2,13,6,15S157,60.36,157,60.36Z" transform="translate(0 0.64)"/><path d="M178,10.36l-6,49s0,20,15,19,18-19,18-19l7-48h-7l-6,45s-2,14-12,13-8-13-8-13l6-46Z" transform="translate(0 0.64)"/><polygon points="213 76 222 11 227 11 235 53 253 11 259 11 251 75 245 75 250 31 236 67 232 67 225 34 220 76 213 76 213 76"/><polygon points="262 73 269 11 295 11 294 19 274 19 272 38 289 38 288 46 271 46 269 65 289 64 288 72 262 73"/><polygon points="296 71 303 11 308 11 321 55 326 11 331 11 325 70 320 70 307 27 302 71 296 71"/><polygon points="336 19 337 11 362 11 361 19 352 19 346 69 341 69 346 19 336 19"/><path d="M378,10.36h-4l-19,57h6l4-13,14-1,1,12h5Zm-11,36,8-25,3,25Z" transform="translate(0 0.64)"/><polygon points="394 65 399 18 389 18 390 10 413 10 412 18 403 18 398 65 394 65"/><polygon points="412 64 417 10 422 10 416 64 412 64"/><path d="M439,9.36c-7,0-11,12-11,12s-1,2-3,22,8,19,8,19c12,0,13-21,13-21s2-15,2-19S446,9.36,439,9.36Zm4,20-2,18s-1,8-7,8c0,0-5,0-5-9,0-6,2-22,2-22s2-9,8-8S443,29.36,443,29.36Z" transform="translate(0 0.64)"/><polygon points="450 62 455 10 459 10 469 49 472 10 476 10 471 61 468 61 458 24 454 62 450 62"/></g></svg>