<svg xmlns="http://www.w3.org/2000/svg" viewBox="0 0 1870.48 665.15"><defs><style>.cls-1,.cls-2{fill:#fff;}.cls-14,.cls-2{stroke:#000;}.cls-2{stroke-linecap:round;stroke-miterlimit:10;stroke-width:15px;}.cls-3{fill:#d90754;}.cls-4{fill:#0bb3d9;}.cls-14,.cls-5{font-size:350px;font-family:Bahnschrift, Bahnschrift;}.cls-6{letter-spacing:-0.01em;}.cls-7{letter-spacing:-0.02em;}.cls-8{letter-spacing:-0.01em;}.cls-9{letter-spacing:-0.02em;}.cls-10{letter-spacing:-0.03em;}.cls-11{letter-spacing:-0.02em;}.cls-12{letter-spacing:-0.02em;}.cls-13{letter-spacing:0em;}.cls-14{fill:none;stroke-width:10px;}</style></defs><title>360 Capture</title><g id="Ebene_10" data-name="Ebene 10"><polygon points="222.91 547.5 206.46 219.97 647.13 122.16 535.03 547.5 222.91 547.5"/><path d="M721.05,277.32,612,691H308.5l-16-318.57,428.55-95.11M734.9,264,282.1,364.5,299,701H619.73L734.9,264Z" transform="translate(-80.84 -148.5)"/></g><g id="Ebene_8" data-name="Ebene 8"><polygon class="cls-1" points="417.78 428.5 563.9 196.76 485.72 428.5 417.78 428.5"/><path d="M637.48,360.53,565.13,575H502.25L637.48,360.53M652,330,495,579h73l84-249Z" transform="translate(-80.84 -148.5)"/></g><g id="Ebene_4" data-name="Ebene 4"><path class="cls-1" d="M535,631a69,69,0,1,1,69-69A69.08,69.08,0,0,1,535,631Z" transform="translate(-80.84 -148.5)"/><path d="M535,498a64,64,0,1,1-64,64,64.07,64.07,0,0,1,64-64m0-10a74,74,0,1,0,74,74,74,74,0,0,0-74-74Z" transform="translate(-80.84 -148.5)"/></g><g id="Ebene_2" data-name="Ebene 2"><path class="cls-1" d="M307.5,682.5c-26.34,0-50.62-28.45-68.37-80.11C222,552.39,212.5,486,212.5,415.5S222,278.61,239.13,228.61c17.75-51.66,42-80.11,68.37-80.11,32.39,0,61.1,42.4,78.78,116.34a5,5,0,0,1-9.73,2.33c-8-33.46-18.69-61.19-30.92-80.21-8.35-13-21.74-28.46-38.14-28.46-21.42,0-42.9,26.74-58.91,73.36-16.82,49-26.09,114.19-26.09,183.64s9.27,134.66,26.09,183.64c16,46.62,37.49,73.36,58.91,73.36,16.31,0,29.65-15.32,38-28.18,12.18-18.83,22.85-46.32,30.86-79.5a5,5,0,0,1,9.72,2.35C368.34,640.47,339.71,682.5,307.5,682.5Z" transform="translate(-80.84 -148.5)"/><path class="cls-1" d="M157.39,484.24c-47.53,0-73.19-7.63-76.25-22.67s17.57-32.09,61.32-50.67c40.39-17.15,95.39-33.27,154.87-45.37s116.39-18.77,160.28-18.77h0c47.53,0,73.19,7.63,76.25,22.67s-17.57,32.09-61.32,50.67a5,5,0,0,1-3.91-9.2c43.12-18.31,56.81-32.71,55.43-39.48s-19.61-14.67-66.45-14.67c-43.24,0-99.45,6.59-158.29,18.57s-113.15,27.88-153,44.78c-43.12,18.31-56.81,32.71-55.43,39.48s19.61,14.67,66.45,14.67a5,5,0,0,1,0,10Z" transform="translate(-80.84 -148.5)"/></g><g id="Ebene_7" data-name="Ebene 7"><path class="cls-1" d="M522.07,595.12a36.2,36.2,0,0,1-11.28-1.7L275.11,511.78,380.9,346.91,553.34,527.14c.8.81,19.79,20.47,2.05,48.11C544.85,591.67,531.45,595.12,522.07,595.12Z" transform="translate(-80.84 -148.5)"/><path d="M381.68,355l168,175.55.09.1.1.09a32.66,32.66,0,0,1,6.52,11.4c3.26,9.78,1.53,20-5.16,30.45-7.48,11.66-17.28,17.57-29.12,17.57a32,32,0,0,1-9.52-1.38h0l-.21-.07L282.75,509.13,381.68,355m-1.56-16.09L267.47,514.42,509,598.11a40.43,40.43,0,0,0,13,2c10.63,0,25.77-3.85,37.53-22.17,20.26-31.58-2.74-54.36-2.74-54.36L380.12,338.86Z" transform="translate(-80.84 -148.5)"/></g><g id="Ebene_1" data-name="Ebene 1"><path class="cls-2" d="M308,566A150,150,0,0,0,458,416" transform="translate(-80.84 -148.5)"/><circle class="cls-3" cx="227.16" cy="267.5" r="150"/></g><g id="Ebene_2_Kopie_2" data-name="Ebene 2 Kopie 2"><g id="Ebene_6" data-name="Ebene 6"><circle class="cls-4" cx="170.66" cy="64" r="19"/><circle class="cls-4" cx="280.66" cy="212" r="19"/><path class="cls-4" d="M472.54,420.1a5,5,0,1,1-3.91-9.2c43.12-18.31,56.81-32.71,55.43-39.48s-19.61-14.66-66.45-14.66c-43.24,0-99.45,6.59-158.29,18.56-26.75,5.45-52.57,11.71-76.51,18.5q-.32,10.75-.31,21.68c0,69.44,9.27,134.66,26.09,183.64,16,46.62,37.49,73.36,58.91,73.36,16.31,0,29.65-15.32,38-28.18,12.18-18.83,22.85-46.31,30.86-79.49a5,5,0,0,1,9.72,2.34c-17.7,73.3-46.33,115.33-78.54,115.33-26.34,0-50.62-28.45-68.37-80.11C222,552.39,212.5,486,212.5,415.5q0-9.44.23-18.76a633.55,633.55,0,0,0-66.36,23.36c-43.12,18.31-56.81,32.71-55.43,39.48s19.61,14.66,66.45,14.66a5,5,0,1,1,0,10c-47.53,0-73.19-7.62-76.25-22.67s17.57-32.09,61.32-50.67a651.54,651.54,0,0,1,70.6-24.67c2.23-59.47,11.3-114.6,26.07-157.62,17.75-51.66,42-80.11,68.37-80.11,32.39,0,61.1,42.4,78.78,116.34a5,5,0,1,1-9.72,2.32c-8-33.46-18.7-61.19-30.92-80.2-8.35-13-21.74-28.46-38.14-28.46-21.42,0-42.9,26.74-58.91,73.36-14.19,41.33-23,94.23-25.42,151.48,23.32-6.54,48.32-12.55,74.16-17.82,59.47-12.1,116.39-18.76,160.27-18.76h0c47.53,0,73.19,7.62,76.25,22.67S516.29,401.52,472.54,420.1Z" transform="translate(-80.84 -148.5)"/><text class="cls-5" transform="matrix(0.97, 0, -0.26, 0.97, 630.03, 298.41)"><tspan class="cls-6">3</tspan><tspan class="cls-7" x="180.25" y="0">6</tspan><tspan x="353.99" y="0">0 </tspan><tspan class="cls-8"><tspan x="0" y="280">C</tspan><tspan class="cls-9" x="213.41" y="280">a</tspan><tspan class="cls-7" x="392.06" y="280">p</tspan><tspan class="cls-10" x="576.56" y="280">t</tspan><tspan class="cls-11" x="680.75" y="280">u</tspan><tspan class="cls-12" x="868.09" y="280">r</tspan><tspan class="cls-13" x="1009.86" y="280">e</tspan></tspan></text><text class="cls-14" transform="matrix(0.97, 0, -0.26, 0.97, 630.03, 298.41)"><tspan class="cls-6">3</tspan><tspan class="cls-7" x="180.25" y="0">6</tspan><tspan x="353.99" y="0">0 </tspan><tspan class="cls-8"><tspan x="0" y="280">C</tspan><tspan class="cls-9" x="213.41" y="280">a</tspan><tspan class="cls-7" x="392.06" y="280">p</tspan><tspan class="cls-10" x="576.56" y="280">t</tspan><tspan class="cls-11" x="680.75" y="280">u</tspan><tspan class="cls-12" x="868.09" y="280">r</tspan><tspan class="cls-13" x="1009.86" y="280">e</tspan></tspan></text></g></g></svg>